<svg width="434" height="89" viewBox="0 0 434 89" fill="none" xmlns="http://www.w3.org/2000/svg">
<path d="M140.679 44.0866H132.838C132.838 42.7798 132.625 41.6222 132.199 40.6136C131.773 39.5909 131.176 38.7244 130.409 38.0142C129.642 37.304 128.733 36.7713 127.682 36.4162C126.631 36.0469 125.466 35.8622 124.188 35.8622C121.744 35.8622 119.472 36.4801 117.369 37.7159C115.267 38.9517 113.484 40.7486 112.021 43.1065C110.558 45.4503 109.543 48.2983 108.974 51.6506C108.449 54.9176 108.499 57.652 109.124 59.8537C109.763 62.0554 110.871 63.7173 112.447 64.8395C114.024 65.9474 115.942 66.5014 118.2 66.5014C119.578 66.5014 120.899 66.331 122.163 65.9901C123.428 65.6349 124.592 65.1165 125.658 64.4347C126.737 63.7386 127.682 62.8935 128.491 61.8991C129.315 60.9048 129.955 59.7756 130.409 58.5114H138.357C137.703 60.5852 136.744 62.5384 135.48 64.3707C134.216 66.1889 132.696 67.794 130.92 69.1861C129.145 70.5639 127.156 71.6435 124.955 72.4247C122.753 73.206 120.381 73.5966 117.838 73.5966C113.932 73.5966 110.587 72.6875 107.803 70.8693C105.033 69.0369 103.044 66.4162 101.837 63.0071C100.629 59.5838 100.416 55.4858 101.197 50.7131C101.979 46.0682 103.484 42.1122 105.714 38.8452C107.959 35.5781 110.693 33.0852 113.918 31.3665C117.156 29.6335 120.643 28.767 124.379 28.767C126.851 28.767 129.095 29.108 131.112 29.7898C133.143 30.4716 134.884 31.473 136.332 32.794C137.781 34.1009 138.882 35.706 139.635 37.6094C140.402 39.4986 140.75 41.6577 140.679 44.0866ZM148.243 73H139.805L162.412 29.3636H172.17L180.31 73H171.872L166.013 38.3125H165.672L148.243 73ZM151.354 55.8906H174.365L173.3 62.2401H150.288L151.354 55.8906ZM186.057 73L193.301 29.3636H209.665C213.017 29.3636 215.738 29.946 217.826 31.1108C219.914 32.2756 221.37 33.9091 222.194 36.0114C223.017 38.0994 223.195 40.5355 222.726 43.3196C222.272 46.1037 221.277 48.5256 219.743 50.5852C218.223 52.6307 216.213 54.2145 213.713 55.3366C211.228 56.4588 208.309 57.0199 204.956 57.0199H193.301L194.409 50.4574H205.02C206.98 50.4574 208.628 50.1875 209.963 49.6477C211.299 49.0937 212.35 48.2912 213.117 47.2401C213.898 46.1747 214.417 44.8679 214.672 43.3196C214.914 41.7713 214.821 40.4503 214.395 39.3565C213.983 38.2486 213.195 37.4105 212.03 36.8423C210.88 36.2599 209.324 35.9688 207.364 35.9688H200.12L193.962 73H186.057ZM211.881 53.2273L219.402 73H210.581L203.252 53.2273H211.881ZM254.228 41.5724C254.285 39.598 253.681 38.0852 252.417 37.0341C251.167 35.983 249.37 35.4574 247.027 35.4574C245.379 35.4574 243.923 35.706 242.659 36.2031C241.409 36.6861 240.4 37.3608 239.633 38.2273C238.866 39.0795 238.39 40.0526 238.206 41.1463C238.049 42.0412 238.127 42.8224 238.44 43.4901C238.752 44.1577 239.228 44.7259 239.868 45.1946C240.521 45.6634 241.26 46.054 242.083 46.3665C242.922 46.679 243.774 46.9418 244.64 47.1548L248.561 48.1776C250.123 48.5611 251.615 49.0795 253.035 49.733C254.456 50.3722 255.684 51.196 256.721 52.2045C257.772 53.1989 258.539 54.3991 259.022 55.8054C259.505 57.2116 259.583 58.8594 259.257 60.7486C258.831 63.3054 257.801 65.5568 256.167 67.5028C254.548 69.4347 252.417 70.9474 249.775 72.0412C247.147 73.1207 244.086 73.6605 240.592 73.6605C237.211 73.6605 234.356 73.1349 232.027 72.0838C229.697 71.0185 227.993 69.4773 226.913 67.4602C225.848 65.4432 225.507 62.9929 225.89 60.1094H233.667C233.511 61.6293 233.76 62.8935 234.413 63.902C235.081 64.9105 236.039 65.6634 237.289 66.1605C238.539 66.6577 239.988 66.9062 241.636 66.9062C243.355 66.9062 244.91 66.6506 246.302 66.1392C247.694 65.6136 248.831 64.8892 249.711 63.9659C250.606 63.0284 251.153 61.9347 251.352 60.6847C251.551 59.5625 251.387 58.625 250.862 57.8722C250.336 57.1193 249.52 56.4943 248.412 55.9972C247.318 55.4858 246.011 55.0312 244.491 54.6335L239.761 53.3551C236.338 52.4176 233.738 51.0114 231.963 49.1364C230.201 47.2614 229.576 44.7614 230.088 41.6364C230.514 39.0511 231.586 36.7997 233.305 34.8821C235.024 32.9503 237.176 31.4517 239.761 30.3864C242.346 29.3068 245.173 28.767 248.241 28.767C251.338 28.767 253.958 29.3068 256.103 30.3864C258.262 31.4659 259.839 32.9716 260.833 34.9034C261.842 36.821 262.176 39.044 261.835 41.5724H254.228ZM268.499 35.9901L269.607 29.3636H304.422L303.314 35.9901H289.827L283.69 73H275.849L281.986 35.9901H268.499ZM304.219 73H295.782L318.388 29.3636H328.147L336.286 73H327.849L321.989 38.3125H321.648L304.219 73ZM307.33 55.8906H330.342L329.276 62.2401H306.265L307.33 55.8906ZM342.034 73L349.278 29.3636H365.642C368.994 29.3636 371.714 29.946 373.802 31.1108C375.89 32.2756 377.346 33.9091 378.17 36.0114C378.994 38.0994 379.172 40.5355 378.703 43.3196C378.248 46.1037 377.254 48.5256 375.72 50.5852C374.2 52.6307 372.19 54.2145 369.69 55.3366C367.204 56.4588 364.285 57.0199 360.933 57.0199H349.278L350.386 50.4574H360.997C362.957 50.4574 364.605 50.1875 365.94 49.6477C367.275 49.0937 368.326 48.2912 369.093 47.2401C369.875 46.1747 370.393 44.8679 370.649 43.3196C370.89 41.7713 370.798 40.4503 370.372 39.3565C369.96 38.2486 369.172 37.4105 368.007 36.8423C366.856 36.2599 365.301 35.9688 363.341 35.9688H356.096L349.939 73H342.034ZM367.858 53.2273L375.379 73H366.558L359.228 53.2273H367.858ZM380.482 73L381.334 68.0781L409.012 35.9901H386.49L387.598 29.3636H419.9L419.111 34.2855L391.37 66.3736H413.891L412.783 73H380.482Z" fill="white"/>
<path d="M57.3076 34.1494L57.4199 34.4951H91.958L64.3096 54.6006L64.0156 54.8145L64.1279 55.1592L74.6875 87.6904L47.042 67.5859L46.7471 67.3721L46.4531 67.5859L18.8057 87.6904L29.3672 55.1592L29.4795 54.8145L29.1855 54.6006L1.53711 34.4951H36.0752L36.1875 34.1494L46.7471 1.61914L57.3076 34.1494Z" fill="black" stroke="white"/>
<path d="M46.6094 10L55.4902 36.9503H84.229L60.9788 53.6064L69.8596 80.5567L46.6094 63.9005L23.3593 80.5567L32.24 53.6064L8.98987 36.9503H37.7287L46.6094 10Z" fill="#D70000"/>
</svg>
